<svg width="203" height="42" viewBox="0 0 203 42" fill="none" xmlns="http://www.w3.org/2000/svg">
<path d="M0.335938 39V0.351562L26.7266 27.9609V2.8125H32.1875V41.2031L5.79688 13.6641V39H0.335938ZM39.125 27.4219C39.125 24.125 40.3047 21.3203 42.6641 19.0078C45.0234 16.6953 47.8984 15.5391 51.2891 15.5391C54.6953 15.5391 57.5859 16.7031 59.9609 19.0312C62.3047 21.3594 63.4766 24.2188 63.4766 27.6094C63.4766 31.0312 62.2969 33.8984 59.9375 36.2109C57.5625 38.5078 54.6484 39.6562 51.1953 39.6562C47.7734 39.6562 44.9062 38.4844 42.5938 36.1406C40.2812 33.8281 39.125 30.9219 39.125 27.4219ZM44.5156 27.5156C44.5156 29.7969 45.125 31.6016 46.3438 32.9297C47.5938 34.2734 49.2422 34.9453 51.2891 34.9453C53.3516 34.9453 55 34.2812 56.2344 32.9531C57.4688 31.625 58.0859 29.8516 58.0859 27.6328C58.0859 25.4141 57.4688 23.6406 56.2344 22.3125C54.9844 20.9688 53.3359 20.2969 51.2891 20.2969C49.2734 20.2969 47.6406 20.9688 46.3906 22.3125C45.1406 23.6562 44.5156 25.3906 44.5156 27.5156ZM108.219 16.1719H113.516V39H108.219V36.6094C106.047 38.6406 103.711 39.6562 101.211 39.6562C98.0547 39.6562 95.4453 38.5156 93.3828 36.2344C91.3359 33.9062 90.3125 31 90.3125 27.5156C90.3125 24.0938 91.3359 21.2422 93.3828 18.9609C95.4297 16.6797 97.9922 15.5391 101.07 15.5391C103.727 15.5391 106.109 16.6328 108.219 18.8203V16.1719ZM95.7031 27.5156C95.7031 29.7031 96.2891 31.4844 97.4609 32.8594C98.6641 34.25 100.18 34.9453 102.008 34.9453C103.961 34.9453 105.539 34.2734 106.742 32.9297C107.945 31.5391 108.547 29.7734 108.547 27.6328C108.547 25.4922 107.945 23.7266 106.742 22.3359C105.539 20.9766 103.977 20.2969 102.055 20.2969C100.242 20.2969 98.7266 20.9844 97.5078 22.3594C96.3047 23.75 95.7031 25.4688 95.7031 27.5156ZM120.172 16.1719H125.469V18.2812C127.312 16.4531 129.391 15.5391 131.703 15.5391C134.359 15.5391 136.43 16.375 137.914 18.0469C139.195 19.4688 139.836 21.7891 139.836 25.0078V39H134.539V26.25C134.539 24 134.227 22.4453 133.602 21.5859C132.992 20.7109 131.883 20.2734 130.273 20.2734C128.523 20.2734 127.281 20.8516 126.547 22.0078C125.828 23.1484 125.469 25.1406 125.469 27.9844V39H120.172V16.1719ZM167.305 28.8281H150.945C151.086 30.7031 151.695 32.1953 152.773 33.3047C153.852 34.3984 155.234 34.9453 156.922 34.9453C158.234 34.9453 159.32 34.6328 160.18 34.0078C161.023 33.3828 161.984 32.2266 163.062 30.5391L167.516 33.0234C166.828 34.1953 166.102 35.2031 165.336 36.0469C164.57 36.875 163.75 37.5625 162.875 38.1094C162 38.6406 161.055 39.0312 160.039 39.2812C159.023 39.5312 157.922 39.6562 156.734 39.6562C153.328 39.6562 150.594 38.5625 148.531 36.375C146.469 34.1719 145.438 31.25 145.438 27.6094C145.438 24 146.438 21.0781 148.438 18.8438C150.453 16.6406 153.125 15.5391 156.453 15.5391C159.812 15.5391 162.469 16.6094 164.422 18.75C166.359 20.875 167.328 23.8203 167.328 27.5859L167.305 28.8281ZM161.891 24.5156C161.156 21.7031 159.383 20.2969 156.57 20.2969C155.93 20.2969 155.328 20.3984 154.766 20.6016C154.203 20.7891 153.688 21.0703 153.219 21.4453C152.766 21.8047 152.375 22.2422 152.047 22.7578C151.719 23.2734 151.469 23.8594 151.297 24.5156H161.891ZM186.359 20.0625L182 22.3828C181.312 20.9766 180.461 20.2734 179.445 20.2734C178.961 20.2734 178.547 20.4375 178.203 20.7656C177.859 21.0781 177.688 21.4844 177.688 21.9844C177.688 22.8594 178.703 23.7266 180.734 24.5859C183.531 25.7891 185.414 26.8984 186.383 27.9141C187.352 28.9297 187.836 30.2969 187.836 32.0156C187.836 34.2188 187.023 36.0625 185.398 37.5469C183.82 38.9531 181.914 39.6562 179.68 39.6562C175.852 39.6562 173.141 37.7891 171.547 34.0547L176.047 31.9688C176.672 33.0625 177.148 33.7578 177.477 34.0547C178.117 34.6484 178.883 34.9453 179.773 34.9453C181.555 34.9453 182.445 34.1328 182.445 32.5078C182.445 31.5703 181.758 30.6953 180.383 29.8828C179.852 29.6172 179.32 29.3594 178.789 29.1094C178.258 28.8594 177.719 28.6016 177.172 28.3359C175.641 27.5859 174.562 26.8359 173.938 26.0859C173.141 25.1328 172.742 23.9062 172.742 22.4062C172.742 20.4219 173.422 18.7812 174.781 17.4844C176.172 16.1875 177.859 15.5391 179.844 15.5391C182.766 15.5391 184.938 17.0469 186.359 20.0625Z" fill="white"/>
<path d="M70.9297 16.1719L76.8359 28.9922L82.7188 16.1719H88.6484L76.7891 40.5703L65.0234 16.1719H70.9297Z" fill="url(#paint0_linear_86_71)"/>
<path d="M198.031 21.0938V39H192.758V21.0938H190.508V16.1719H192.758V7.80469H198.031V16.1719H202.133V21.0938H198.031Z" fill="url(#paint1_linear_86_71)"/>
<defs>
<linearGradient id="paint0_linear_86_71" x1="70.8945" y1="14" x2="59.0933" y2="32.9248" gradientUnits="userSpaceOnUse">
<stop stop-color="#05EEFE"/>
<stop offset="1" stop-color="#4EADFE"/>
</linearGradient>
<linearGradient id="paint1_linear_86_71" x1="191.558" y1="11" x2="179.831" y2="34.3792" gradientUnits="userSpaceOnUse">
<stop stop-color="#05EEFE"/>
<stop offset="1" stop-color="#4EADFE"/>
</linearGradient>
</defs>
</svg>
